<svg width="1168" height="572" viewBox="0 0 1168 572" fill="none" xmlns="http://www.w3.org/2000/svg">
<g clip-path="url(#clip0_2013_1251)">
<g clip-path="url(#clip1_2013_1251)">
<g opacity="0.5" filter="url(#filter0_d_2013_1251)">
<path fill-rule="evenodd" clip-rule="evenodd" d="M1064.9 -62.3825C980.421 -62.3825 911.935 6.63398 911.935 91.1745C911.935 111.282 915.809 130.511 922.852 148.143C983.667 159.859 1036.1 195.391 1069.95 244.649C1152.1 241.963 1217.87 174.023 1217.87 91.1745C1217.87 6.63398 1149.38 -62.3825 1064.9 -62.3825Z" fill="url(#paint0_linear_2013_1251)"/>
</g>
<g opacity="0.5" filter="url(#filter1_d_2013_1251)">
<path fill-rule="evenodd" clip-rule="evenodd" d="M1045.48 535.802C1060 592.471 1111.68 634.383 1172.8 634.383C1245.09 634.383 1304.18 575.73 1304.18 503.379C1304.18 431.028 1245.09 372.376 1172.8 372.376C1150.12 372.376 1128.75 378.143 1110.09 388.29C1106.91 445.478 1082.86 497.123 1045.48 535.802Z" fill="url(#paint1_linear_2013_1251)"/>
</g>
<g opacity="0.5" filter="url(#filter2_d_2013_1251)">
<path d="M647.239 375.255C647.239 502.996 751.199 606.55 878.848 606.55C1006.5 606.55 1110.46 502.996 1110.46 375.255C1110.46 247.514 1006.5 143.96 878.848 143.96C751.199 143.96 647.239 247.514 647.239 375.255Z" fill="url(#paint2_linear_2013_1251)"/>
</g>
</g>
<g opacity="0.5">
<mask id="mask0_2013_1251" style="mask-type:luminance" maskUnits="userSpaceOnUse" x="717" y="-18" width="805" height="608">
<path d="M717 -18H1522V590H717V-18Z" fill="white"/>
</mask>
<g mask="url(#mask0_2013_1251)">
<g opacity="0.2" filter="url(#filter3_f_2013_1251)">
<path d="M1804.16 -408.853L1829 -384.012L1393.19 51.7951L1089.16 341.214L1368.35 26.9541L1804.16 -408.853Z" fill="url(#paint3_linear_2013_1251)"/>
</g>
<g opacity="0.32" filter="url(#filter4_f_2013_1251)">
<path d="M1597.07 -398.376L1621.92 -373.535L1186.11 62.2726L882.071 351.691L1161.27 37.4316L1597.07 -398.376Z" fill="url(#paint4_linear_2013_1251)"/>
</g>
<g opacity="0.32" filter="url(#filter5_f_2013_1251)">
<path d="M1517.57 -505L1542.41 -480.159L1106.6 -44.3516L802.566 245.067L1081.76 -69.1927L1517.57 -505Z" fill="url(#paint5_linear_2013_1251)"/>
</g>
</g>
<mask id="mask1_2013_1251" style="mask-type:luminance" maskUnits="userSpaceOnUse" x="-338" y="-18" width="805" height="608">
<path d="M467 -18H-338V590H467V-18Z" fill="white"/>
</mask>
<g mask="url(#mask1_2013_1251)">
<g opacity="0.2" filter="url(#filter6_f_2013_1251)">
<path d="M-620.159 -408.853L-645 -384.012L-209.193 51.7951L94.843 341.214L-184.352 26.9541L-620.159 -408.853Z" fill="url(#paint6_linear_2013_1251)"/>
</g>
<g opacity="0.32" filter="url(#filter7_f_2013_1251)">
<path d="M-413.074 -398.376L-437.915 -373.535L-2.10803 62.2726L301.929 351.691L22.733 37.4316L-413.074 -398.376Z" fill="url(#paint7_linear_2013_1251)"/>
</g>
<g opacity="0.32" filter="url(#filter8_f_2013_1251)">
<path d="M-333.568 -505L-358.409 -480.159L77.398 -44.3516L381.434 245.067L102.239 -69.1927L-333.568 -505Z" fill="url(#paint8_linear_2013_1251)"/>
</g>
</g>
<mask id="mask2_2013_1251" style="mask-type:luminance" maskUnits="userSpaceOnUse" x="717" y="-18" width="805" height="608">
<path d="M717 -18H1522V590H717V-18Z" fill="white"/>
</mask>
<g mask="url(#mask2_2013_1251)">
<g opacity="0.2" filter="url(#filter9_f_2013_1251)">
<path d="M1804.16 -408.853L1829 -384.012L1393.19 51.7951L1089.16 341.214L1368.35 26.9541L1804.16 -408.853Z" fill="url(#paint9_linear_2013_1251)"/>
</g>
<g opacity="0.32" filter="url(#filter10_f_2013_1251)">
<path d="M1597.07 -398.376L1621.92 -373.535L1186.11 62.2726L882.071 351.691L1161.27 37.4316L1597.07 -398.376Z" fill="url(#paint10_linear_2013_1251)"/>
</g>
<g opacity="0.32" filter="url(#filter11_f_2013_1251)">
<path d="M1517.57 -505L1542.41 -480.159L1106.6 -44.3516L802.566 245.067L1081.76 -69.1927L1517.57 -505Z" fill="url(#paint11_linear_2013_1251)"/>
</g>
</g>
<mask id="mask3_2013_1251" style="mask-type:luminance" maskUnits="userSpaceOnUse" x="-338" y="-18" width="805" height="608">
<path d="M467 -18H-338V590H467V-18Z" fill="white"/>
</mask>
<g mask="url(#mask3_2013_1251)">
<g opacity="0.2" filter="url(#filter12_f_2013_1251)">
<path d="M-620.159 -408.853L-645 -384.012L-209.193 51.7951L94.843 341.214L-184.352 26.9541L-620.159 -408.853Z" fill="url(#paint12_linear_2013_1251)"/>
</g>
<g opacity="0.32" filter="url(#filter13_f_2013_1251)">
<path d="M-413.074 -398.376L-437.915 -373.535L-2.10803 62.2726L301.929 351.691L22.733 37.4316L-413.074 -398.376Z" fill="url(#paint13_linear_2013_1251)"/>
</g>
<g opacity="0.32" filter="url(#filter14_f_2013_1251)">
<path d="M-333.568 -505L-358.409 -480.159L77.398 -44.3516L381.434 245.067L102.239 -69.1927L-333.568 -505Z" fill="url(#paint14_linear_2013_1251)"/>
</g>
</g>
</g>
</g>
<defs>
<filter id="filter0_d_2013_1251" x="886.935" y="-87.3825" width="355.935" height="357.032" filterUnits="userSpaceOnUse" color-interpolation-filters="sRGB">
<feFlood flood-opacity="0" result="BackgroundImageFix"/>
<feColorMatrix in="SourceAlpha" type="matrix" values="0 0 0 0 0 0 0 0 0 0 0 0 0 0 0 0 0 0 127 0" result="hardAlpha"/>
<feOffset/>
<feGaussianBlur stdDeviation="12.5"/>
<feComposite in2="hardAlpha" operator="out"/>
<feColorMatrix type="matrix" values="0 0 0 0 0 0 0 0 0 0 0 0 0 0 0 0 0 0 0.1 0"/>
<feBlend mode="normal" in2="BackgroundImageFix" result="effect1_dropShadow_2013_1251"/>
<feBlend mode="normal" in="SourceGraphic" in2="effect1_dropShadow_2013_1251" result="shape"/>
</filter>
<filter id="filter1_d_2013_1251" x="1020.48" y="347.376" width="308.707" height="312.007" filterUnits="userSpaceOnUse" color-interpolation-filters="sRGB">
<feFlood flood-opacity="0" result="BackgroundImageFix"/>
<feColorMatrix in="SourceAlpha" type="matrix" values="0 0 0 0 0 0 0 0 0 0 0 0 0 0 0 0 0 0 127 0" result="hardAlpha"/>
<feOffset/>
<feGaussianBlur stdDeviation="12.5"/>
<feComposite in2="hardAlpha" operator="out"/>
<feColorMatrix type="matrix" values="0 0 0 0 0 0 0 0 0 0 0 0 0 0 0 0 0 0 0.1 0"/>
<feBlend mode="normal" in2="BackgroundImageFix" result="effect1_dropShadow_2013_1251"/>
<feBlend mode="normal" in="SourceGraphic" in2="effect1_dropShadow_2013_1251" result="shape"/>
</filter>
<filter id="filter2_d_2013_1251" x="597.239" y="93.9597" width="563.218" height="562.591" filterUnits="userSpaceOnUse" color-interpolation-filters="sRGB">
<feFlood flood-opacity="0" result="BackgroundImageFix"/>
<feColorMatrix in="SourceAlpha" type="matrix" values="0 0 0 0 0 0 0 0 0 0 0 0 0 0 0 0 0 0 127 0" result="hardAlpha"/>
<feOffset/>
<feGaussianBlur stdDeviation="25"/>
<feComposite in2="hardAlpha" operator="out"/>
<feColorMatrix type="matrix" values="0 0 0 0 0 0 0 0 0 0 0 0 0 0 0 0 0 0 0.05 0"/>
<feBlend mode="normal" in2="BackgroundImageFix" result="effect1_dropShadow_2013_1251"/>
<feBlend mode="normal" in="SourceGraphic" in2="effect1_dropShadow_2013_1251" result="shape"/>
</filter>
<filter id="filter3_f_2013_1251" x="1009.16" y="-488.853" width="899.843" height="910.067" filterUnits="userSpaceOnUse" color-interpolation-filters="sRGB">
<feFlood flood-opacity="0" result="BackgroundImageFix"/>
<feBlend mode="normal" in="SourceGraphic" in2="BackgroundImageFix" result="shape"/>
<feGaussianBlur stdDeviation="40" result="effect1_foregroundBlur_2013_1251"/>
</filter>
<filter id="filter4_f_2013_1251" x="802.071" y="-478.376" width="899.844" height="910.067" filterUnits="userSpaceOnUse" color-interpolation-filters="sRGB">
<feFlood flood-opacity="0" result="BackgroundImageFix"/>
<feBlend mode="normal" in="SourceGraphic" in2="BackgroundImageFix" result="shape"/>
<feGaussianBlur stdDeviation="40" result="effect1_foregroundBlur_2013_1251"/>
</filter>
<filter id="filter5_f_2013_1251" x="722.566" y="-585" width="899.843" height="910.067" filterUnits="userSpaceOnUse" color-interpolation-filters="sRGB">
<feFlood flood-opacity="0" result="BackgroundImageFix"/>
<feBlend mode="normal" in="SourceGraphic" in2="BackgroundImageFix" result="shape"/>
<feGaussianBlur stdDeviation="40" result="effect1_foregroundBlur_2013_1251"/>
</filter>
<filter id="filter6_f_2013_1251" x="-725" y="-488.853" width="899.843" height="910.067" filterUnits="userSpaceOnUse" color-interpolation-filters="sRGB">
<feFlood flood-opacity="0" result="BackgroundImageFix"/>
<feBlend mode="normal" in="SourceGraphic" in2="BackgroundImageFix" result="shape"/>
<feGaussianBlur stdDeviation="40" result="effect1_foregroundBlur_2013_1251"/>
</filter>
<filter id="filter7_f_2013_1251" x="-517.915" y="-478.376" width="899.844" height="910.067" filterUnits="userSpaceOnUse" color-interpolation-filters="sRGB">
<feFlood flood-opacity="0" result="BackgroundImageFix"/>
<feBlend mode="normal" in="SourceGraphic" in2="BackgroundImageFix" result="shape"/>
<feGaussianBlur stdDeviation="40" result="effect1_foregroundBlur_2013_1251"/>
</filter>
<filter id="filter8_f_2013_1251" x="-438.409" y="-585" width="899.843" height="910.067" filterUnits="userSpaceOnUse" color-interpolation-filters="sRGB">
<feFlood flood-opacity="0" result="BackgroundImageFix"/>
<feBlend mode="normal" in="SourceGraphic" in2="BackgroundImageFix" result="shape"/>
<feGaussianBlur stdDeviation="40" result="effect1_foregroundBlur_2013_1251"/>
</filter>
<filter id="filter9_f_2013_1251" x="1009.16" y="-488.853" width="899.843" height="910.067" filterUnits="userSpaceOnUse" color-interpolation-filters="sRGB">
<feFlood flood-opacity="0" result="BackgroundImageFix"/>
<feBlend mode="normal" in="SourceGraphic" in2="BackgroundImageFix" result="shape"/>
<feGaussianBlur stdDeviation="40" result="effect1_foregroundBlur_2013_1251"/>
</filter>
<filter id="filter10_f_2013_1251" x="802.071" y="-478.376" width="899.844" height="910.067" filterUnits="userSpaceOnUse" color-interpolation-filters="sRGB">
<feFlood flood-opacity="0" result="BackgroundImageFix"/>
<feBlend mode="normal" in="SourceGraphic" in2="BackgroundImageFix" result="shape"/>
<feGaussianBlur stdDeviation="40" result="effect1_foregroundBlur_2013_1251"/>
</filter>
<filter id="filter11_f_2013_1251" x="722.566" y="-585" width="899.843" height="910.067" filterUnits="userSpaceOnUse" color-interpolation-filters="sRGB">
<feFlood flood-opacity="0" result="BackgroundImageFix"/>
<feBlend mode="normal" in="SourceGraphic" in2="BackgroundImageFix" result="shape"/>
<feGaussianBlur stdDeviation="40" result="effect1_foregroundBlur_2013_1251"/>
</filter>
<filter id="filter12_f_2013_1251" x="-725" y="-488.853" width="899.843" height="910.067" filterUnits="userSpaceOnUse" color-interpolation-filters="sRGB">
<feFlood flood-opacity="0" result="BackgroundImageFix"/>
<feBlend mode="normal" in="SourceGraphic" in2="BackgroundImageFix" result="shape"/>
<feGaussianBlur stdDeviation="40" result="effect1_foregroundBlur_2013_1251"/>
</filter>
<filter id="filter13_f_2013_1251" x="-517.915" y="-478.376" width="899.844" height="910.067" filterUnits="userSpaceOnUse" color-interpolation-filters="sRGB">
<feFlood flood-opacity="0" result="BackgroundImageFix"/>
<feBlend mode="normal" in="SourceGraphic" in2="BackgroundImageFix" result="shape"/>
<feGaussianBlur stdDeviation="40" result="effect1_foregroundBlur_2013_1251"/>
</filter>
<filter id="filter14_f_2013_1251" x="-438.409" y="-585" width="899.843" height="910.067" filterUnits="userSpaceOnUse" color-interpolation-filters="sRGB">
<feFlood flood-opacity="0" result="BackgroundImageFix"/>
<feBlend mode="normal" in="SourceGraphic" in2="BackgroundImageFix" result="shape"/>
<feGaussianBlur stdDeviation="40" result="effect1_foregroundBlur_2013_1251"/>
</filter>
<linearGradient id="paint0_linear_2013_1251" x1="1064.9" y1="-62.3825" x2="1064.9" y2="244.649" gradientUnits="userSpaceOnUse">
<stop stop-color="#50716D"/>
<stop offset="1" stop-color="#8AC3BC"/>
</linearGradient>
<linearGradient id="paint1_linear_2013_1251" x1="1174.83" y1="372.376" x2="1174.83" y2="634.383" gradientUnits="userSpaceOnUse">
<stop stop-color="#50716D"/>
<stop offset="1" stop-color="#8AC3BC"/>
</linearGradient>
<linearGradient id="paint2_linear_2013_1251" x1="878.848" y1="143.96" x2="878.848" y2="606.55" gradientUnits="userSpaceOnUse">
<stop stop-color="#50716D"/>
<stop offset="1" stop-color="#8AC3BC"/>
</linearGradient>
<linearGradient id="paint3_linear_2013_1251" x1="1816.58" y1="-396.433" x2="1380.77" y2="39.3746" gradientUnits="userSpaceOnUse">
<stop stop-color="white"/>
<stop offset="1" stop-color="#E3E3E3"/>
</linearGradient>
<linearGradient id="paint4_linear_2013_1251" x1="1609.49" y1="-385.955" x2="1173.69" y2="49.8521" gradientUnits="userSpaceOnUse">
<stop stop-color="white"/>
<stop offset="1" stop-color="#E3E3E3"/>
</linearGradient>
<linearGradient id="paint5_linear_2013_1251" x1="1529.99" y1="-492.579" x2="1094.18" y2="-56.7722" gradientUnits="userSpaceOnUse">
<stop stop-color="white"/>
<stop offset="1" stop-color="#E3E3E3"/>
</linearGradient>
<linearGradient id="paint6_linear_2013_1251" x1="-632.58" y1="-396.433" x2="-196.772" y2="39.3746" gradientUnits="userSpaceOnUse">
<stop stop-color="white"/>
<stop offset="1" stop-color="#E3E3E3"/>
</linearGradient>
<linearGradient id="paint7_linear_2013_1251" x1="-425.495" y1="-385.955" x2="10.313" y2="49.8521" gradientUnits="userSpaceOnUse">
<stop stop-color="white"/>
<stop offset="1" stop-color="#E3E3E3"/>
</linearGradient>
<linearGradient id="paint8_linear_2013_1251" x1="-345.989" y1="-492.579" x2="89.8191" y2="-56.7722" gradientUnits="userSpaceOnUse">
<stop stop-color="white"/>
<stop offset="1" stop-color="#E3E3E3"/>
</linearGradient>
<linearGradient id="paint9_linear_2013_1251" x1="1816.58" y1="-396.433" x2="1380.77" y2="39.3746" gradientUnits="userSpaceOnUse">
<stop stop-color="white"/>
<stop offset="1" stop-color="#E3E3E3"/>
</linearGradient>
<linearGradient id="paint10_linear_2013_1251" x1="1609.49" y1="-385.955" x2="1173.69" y2="49.8521" gradientUnits="userSpaceOnUse">
<stop stop-color="white"/>
<stop offset="1" stop-color="#E3E3E3"/>
</linearGradient>
<linearGradient id="paint11_linear_2013_1251" x1="1529.99" y1="-492.579" x2="1094.18" y2="-56.7722" gradientUnits="userSpaceOnUse">
<stop stop-color="white"/>
<stop offset="1" stop-color="#E3E3E3"/>
</linearGradient>
<linearGradient id="paint12_linear_2013_1251" x1="-632.58" y1="-396.433" x2="-196.772" y2="39.3746" gradientUnits="userSpaceOnUse">
<stop stop-color="white"/>
<stop offset="1" stop-color="#E3E3E3"/>
</linearGradient>
<linearGradient id="paint13_linear_2013_1251" x1="-425.495" y1="-385.955" x2="10.313" y2="49.8521" gradientUnits="userSpaceOnUse">
<stop stop-color="white"/>
<stop offset="1" stop-color="#E3E3E3"/>
</linearGradient>
<linearGradient id="paint14_linear_2013_1251" x1="-345.989" y1="-492.579" x2="89.8191" y2="-56.7722" gradientUnits="userSpaceOnUse">
<stop stop-color="white"/>
<stop offset="1" stop-color="#E3E3E3"/>
</linearGradient>
<clipPath id="clip0_2013_1251">
<rect width="1168" height="572" rx="32" fill="white"/>
</clipPath>
<clipPath id="clip1_2013_1251">
<rect x="606" width="562" height="572" rx="32" fill="white"/>
</clipPath>
</defs>
</svg>
