<svg width="1168" height="572" viewBox="0 0 1168 572" fill="none" xmlns="http://www.w3.org/2000/svg">
<g clip-path="url(#clip0_2013_1251)">
<rect width="1168" height="572" rx="32" fill="url(#paint0_linear_2013_1251)"/>
<g clip-path="url(#clip1_2013_1251)">
<g opacity="0.5" filter="url(#filter0_d_2013_1251)">
<path fill-rule="evenodd" clip-rule="evenodd" d="M1060.5 -65C972.411 -65 901 6.91232 901 95C901 115.951 905.04 135.987 912.383 154.359C975.796 166.566 1030.47 203.589 1065.77 254.914C1151.42 252.116 1220 181.325 1220 95C1220 6.91232 1148.59 -65 1060.5 -65Z" fill="url(#paint1_linear_2013_1251)"/>
</g>
<g opacity="0.5" filter="url(#filter1_d_2013_1251)">
<path fill-rule="evenodd" clip-rule="evenodd" d="M1040.25 558.283C1055.39 617.33 1109.27 661 1173 661C1248.39 661 1310 599.887 1310 524.5C1310 449.113 1248.39 388 1173 388C1149.36 388 1127.08 394.009 1107.62 404.582C1104.3 464.169 1079.23 517.981 1040.25 558.283Z" fill="url(#paint2_linear_2013_1251)"/>
</g>
<g opacity="0.5" filter="url(#filter2_d_2013_1251)">
<path d="M625 391C625 524.101 733.399 632 866.5 632C999.601 632 1108 524.101 1108 391C1108 257.899 999.601 150 866.5 150C733.399 150 625 257.899 625 391Z" fill="url(#paint3_linear_2013_1251)"/>
</g>
</g>
<g opacity="0.5">
<g clip-path="url(#clip2_2013_1251)">
<mask id="mask0_2013_1251" style="mask-type:luminance" maskUnits="userSpaceOnUse" x="717" y="-18" width="805" height="608">
<path d="M717 -18H1522V590H717V-18Z" fill="white"/>
</mask>
<g mask="url(#mask0_2013_1251)">
<g opacity="0.2" filter="url(#filter3_f_2013_1251)">
<path d="M1804.16 -408.853L1829 -384.012L1393.19 51.7951L1089.16 341.214L1368.35 26.9541L1804.16 -408.853Z" fill="url(#paint4_linear_2013_1251)"/>
</g>
<g opacity="0.32" filter="url(#filter4_f_2013_1251)">
<path d="M1597.07 -398.376L1621.92 -373.535L1186.11 62.2726L882.071 351.691L1161.27 37.4316L1597.07 -398.376Z" fill="url(#paint5_linear_2013_1251)"/>
</g>
<g opacity="0.32" filter="url(#filter5_f_2013_1251)">
<path d="M1517.57 -505L1542.41 -480.159L1106.6 -44.3516L802.566 245.067L1081.76 -69.1927L1517.57 -505Z" fill="url(#paint6_linear_2013_1251)"/>
</g>
</g>
</g>
<g clip-path="url(#clip3_2013_1251)">
<mask id="mask1_2013_1251" style="mask-type:luminance" maskUnits="userSpaceOnUse" x="-338" y="-18" width="805" height="608">
<path d="M467 -18H-338V590H467V-18Z" fill="white"/>
</mask>
<g mask="url(#mask1_2013_1251)">
<g opacity="0.2" filter="url(#filter6_f_2013_1251)">
<path d="M-620.159 -408.853L-645 -384.012L-209.193 51.7951L94.843 341.214L-184.352 26.9541L-620.159 -408.853Z" fill="url(#paint7_linear_2013_1251)"/>
</g>
<g opacity="0.32" filter="url(#filter7_f_2013_1251)">
<path d="M-413.074 -398.376L-437.915 -373.535L-2.10803 62.2726L301.929 351.691L22.733 37.4316L-413.074 -398.376Z" fill="url(#paint8_linear_2013_1251)"/>
</g>
<g opacity="0.32" filter="url(#filter8_f_2013_1251)">
<path d="M-333.568 -505L-358.409 -480.159L77.3979 -44.3516L381.434 245.067L102.239 -69.1927L-333.568 -505Z" fill="url(#paint9_linear_2013_1251)"/>
</g>
</g>
</g>
<g clip-path="url(#clip4_2013_1251)">
<mask id="mask2_2013_1251" style="mask-type:luminance" maskUnits="userSpaceOnUse" x="717" y="-18" width="805" height="608">
<path d="M717 -18H1522V590H717V-18Z" fill="white"/>
</mask>
<g mask="url(#mask2_2013_1251)">
<g opacity="0.2" filter="url(#filter9_f_2013_1251)">
<path d="M1804.16 -408.853L1829 -384.012L1393.19 51.7951L1089.16 341.214L1368.35 26.9541L1804.16 -408.853Z" fill="url(#paint10_linear_2013_1251)"/>
</g>
<g opacity="0.32" filter="url(#filter10_f_2013_1251)">
<path d="M1597.07 -398.376L1621.92 -373.535L1186.11 62.2726L882.071 351.691L1161.27 37.4316L1597.07 -398.376Z" fill="url(#paint11_linear_2013_1251)"/>
</g>
<g opacity="0.32" filter="url(#filter11_f_2013_1251)">
<path d="M1517.57 -505L1542.41 -480.159L1106.6 -44.3516L802.566 245.067L1081.76 -69.1927L1517.57 -505Z" fill="url(#paint12_linear_2013_1251)"/>
</g>
</g>
</g>
<g clip-path="url(#clip5_2013_1251)">
<mask id="mask3_2013_1251" style="mask-type:luminance" maskUnits="userSpaceOnUse" x="-338" y="-18" width="805" height="608">
<path d="M467 -18H-338V590H467V-18Z" fill="white"/>
</mask>
<g mask="url(#mask3_2013_1251)">
<g opacity="0.2" filter="url(#filter12_f_2013_1251)">
<path d="M-620.159 -408.853L-645 -384.012L-209.193 51.7951L94.843 341.214L-184.352 26.9541L-620.159 -408.853Z" fill="url(#paint13_linear_2013_1251)"/>
</g>
<g opacity="0.32" filter="url(#filter13_f_2013_1251)">
<path d="M-413.074 -398.376L-437.915 -373.535L-2.10803 62.2726L301.929 351.691L22.733 37.4316L-413.074 -398.376Z" fill="url(#paint14_linear_2013_1251)"/>
</g>
<g opacity="0.32" filter="url(#filter14_f_2013_1251)">
<path d="M-333.568 -505L-358.409 -480.159L77.3979 -44.3516L381.434 245.067L102.239 -69.1927L-333.568 -505Z" fill="url(#paint15_linear_2013_1251)"/>
</g>
</g>
</g>
</g>
</g>
<defs>
<filter id="filter0_d_2013_1251" x="876" y="-90" width="369" height="369.914" filterUnits="userSpaceOnUse" color-interpolation-filters="sRGB">
<feFlood flood-opacity="0" result="BackgroundImageFix"/>
<feColorMatrix in="SourceAlpha" type="matrix" values="0 0 0 0 0 0 0 0 0 0 0 0 0 0 0 0 0 0 127 0" result="hardAlpha"/>
<feOffset/>
<feGaussianBlur stdDeviation="12.5"/>
<feComposite in2="hardAlpha" operator="out"/>
<feColorMatrix type="matrix" values="0 0 0 0 0 0 0 0 0 0 0 0 0 0 0 0 0 0 0.1 0"/>
<feBlend mode="normal" in2="BackgroundImageFix" result="effect1_dropShadow_2013_1251"/>
<feBlend mode="normal" in="SourceGraphic" in2="effect1_dropShadow_2013_1251" result="shape"/>
</filter>
<filter id="filter1_d_2013_1251" x="1015.25" y="363" width="319.755" height="323" filterUnits="userSpaceOnUse" color-interpolation-filters="sRGB">
<feFlood flood-opacity="0" result="BackgroundImageFix"/>
<feColorMatrix in="SourceAlpha" type="matrix" values="0 0 0 0 0 0 0 0 0 0 0 0 0 0 0 0 0 0 127 0" result="hardAlpha"/>
<feOffset/>
<feGaussianBlur stdDeviation="12.5"/>
<feComposite in2="hardAlpha" operator="out"/>
<feColorMatrix type="matrix" values="0 0 0 0 0 0 0 0 0 0 0 0 0 0 0 0 0 0 0.1 0"/>
<feBlend mode="normal" in2="BackgroundImageFix" result="effect1_dropShadow_2013_1251"/>
<feBlend mode="normal" in="SourceGraphic" in2="effect1_dropShadow_2013_1251" result="shape"/>
</filter>
<filter id="filter2_d_2013_1251" x="575" y="100" width="583" height="582" filterUnits="userSpaceOnUse" color-interpolation-filters="sRGB">
<feFlood flood-opacity="0" result="BackgroundImageFix"/>
<feColorMatrix in="SourceAlpha" type="matrix" values="0 0 0 0 0 0 0 0 0 0 0 0 0 0 0 0 0 0 127 0" result="hardAlpha"/>
<feOffset/>
<feGaussianBlur stdDeviation="25"/>
<feComposite in2="hardAlpha" operator="out"/>
<feColorMatrix type="matrix" values="0 0 0 0 0 0 0 0 0 0 0 0 0 0 0 0 0 0 0.05 0"/>
<feBlend mode="normal" in2="BackgroundImageFix" result="effect1_dropShadow_2013_1251"/>
<feBlend mode="normal" in="SourceGraphic" in2="effect1_dropShadow_2013_1251" result="shape"/>
</filter>
<filter id="filter3_f_2013_1251" x="1009.16" y="-488.853" width="899.843" height="910.067" filterUnits="userSpaceOnUse" color-interpolation-filters="sRGB">
<feFlood flood-opacity="0" result="BackgroundImageFix"/>
<feBlend mode="normal" in="SourceGraphic" in2="BackgroundImageFix" result="shape"/>
<feGaussianBlur stdDeviation="40" result="effect1_foregroundBlur_2013_1251"/>
</filter>
<filter id="filter4_f_2013_1251" x="802.071" y="-478.376" width="899.844" height="910.067" filterUnits="userSpaceOnUse" color-interpolation-filters="sRGB">
<feFlood flood-opacity="0" result="BackgroundImageFix"/>
<feBlend mode="normal" in="SourceGraphic" in2="BackgroundImageFix" result="shape"/>
<feGaussianBlur stdDeviation="40" result="effect1_foregroundBlur_2013_1251"/>
</filter>
<filter id="filter5_f_2013_1251" x="722.566" y="-585" width="899.843" height="910.067" filterUnits="userSpaceOnUse" color-interpolation-filters="sRGB">
<feFlood flood-opacity="0" result="BackgroundImageFix"/>
<feBlend mode="normal" in="SourceGraphic" in2="BackgroundImageFix" result="shape"/>
<feGaussianBlur stdDeviation="40" result="effect1_foregroundBlur_2013_1251"/>
</filter>
<filter id="filter6_f_2013_1251" x="-725" y="-488.853" width="899.843" height="910.067" filterUnits="userSpaceOnUse" color-interpolation-filters="sRGB">
<feFlood flood-opacity="0" result="BackgroundImageFix"/>
<feBlend mode="normal" in="SourceGraphic" in2="BackgroundImageFix" result="shape"/>
<feGaussianBlur stdDeviation="40" result="effect1_foregroundBlur_2013_1251"/>
</filter>
<filter id="filter7_f_2013_1251" x="-517.915" y="-478.376" width="899.844" height="910.067" filterUnits="userSpaceOnUse" color-interpolation-filters="sRGB">
<feFlood flood-opacity="0" result="BackgroundImageFix"/>
<feBlend mode="normal" in="SourceGraphic" in2="BackgroundImageFix" result="shape"/>
<feGaussianBlur stdDeviation="40" result="effect1_foregroundBlur_2013_1251"/>
</filter>
<filter id="filter8_f_2013_1251" x="-438.409" y="-585" width="899.843" height="910.067" filterUnits="userSpaceOnUse" color-interpolation-filters="sRGB">
<feFlood flood-opacity="0" result="BackgroundImageFix"/>
<feBlend mode="normal" in="SourceGraphic" in2="BackgroundImageFix" result="shape"/>
<feGaussianBlur stdDeviation="40" result="effect1_foregroundBlur_2013_1251"/>
</filter>
<filter id="filter9_f_2013_1251" x="1009.16" y="-488.853" width="899.843" height="910.067" filterUnits="userSpaceOnUse" color-interpolation-filters="sRGB">
<feFlood flood-opacity="0" result="BackgroundImageFix"/>
<feBlend mode="normal" in="SourceGraphic" in2="BackgroundImageFix" result="shape"/>
<feGaussianBlur stdDeviation="40" result="effect1_foregroundBlur_2013_1251"/>
</filter>
<filter id="filter10_f_2013_1251" x="802.071" y="-478.376" width="899.844" height="910.067" filterUnits="userSpaceOnUse" color-interpolation-filters="sRGB">
<feFlood flood-opacity="0" result="BackgroundImageFix"/>
<feBlend mode="normal" in="SourceGraphic" in2="BackgroundImageFix" result="shape"/>
<feGaussianBlur stdDeviation="40" result="effect1_foregroundBlur_2013_1251"/>
</filter>
<filter id="filter11_f_2013_1251" x="722.566" y="-585" width="899.843" height="910.067" filterUnits="userSpaceOnUse" color-interpolation-filters="sRGB">
<feFlood flood-opacity="0" result="BackgroundImageFix"/>
<feBlend mode="normal" in="SourceGraphic" in2="BackgroundImageFix" result="shape"/>
<feGaussianBlur stdDeviation="40" result="effect1_foregroundBlur_2013_1251"/>
</filter>
<filter id="filter12_f_2013_1251" x="-725" y="-488.853" width="899.843" height="910.067" filterUnits="userSpaceOnUse" color-interpolation-filters="sRGB">
<feFlood flood-opacity="0" result="BackgroundImageFix"/>
<feBlend mode="normal" in="SourceGraphic" in2="BackgroundImageFix" result="shape"/>
<feGaussianBlur stdDeviation="40" result="effect1_foregroundBlur_2013_1251"/>
</filter>
<filter id="filter13_f_2013_1251" x="-517.915" y="-478.376" width="899.844" height="910.067" filterUnits="userSpaceOnUse" color-interpolation-filters="sRGB">
<feFlood flood-opacity="0" result="BackgroundImageFix"/>
<feBlend mode="normal" in="SourceGraphic" in2="BackgroundImageFix" result="shape"/>
<feGaussianBlur stdDeviation="40" result="effect1_foregroundBlur_2013_1251"/>
</filter>
<filter id="filter14_f_2013_1251" x="-438.409" y="-585" width="899.843" height="910.067" filterUnits="userSpaceOnUse" color-interpolation-filters="sRGB">
<feFlood flood-opacity="0" result="BackgroundImageFix"/>
<feBlend mode="normal" in="SourceGraphic" in2="BackgroundImageFix" result="shape"/>
<feGaussianBlur stdDeviation="40" result="effect1_foregroundBlur_2013_1251"/>
</filter>
<linearGradient id="paint0_linear_2013_1251" x1="584" y1="0" x2="584" y2="572" gradientUnits="userSpaceOnUse">
<stop stop-color="#20504B"/>
<stop offset="1" stop-color="#20504B" stop-opacity="0.85"/>
</linearGradient>
<linearGradient id="paint1_linear_2013_1251" x1="1060.5" y1="-65" x2="1060.5" y2="254.914" gradientUnits="userSpaceOnUse">
<stop stop-color="#50716D"/>
<stop offset="1" stop-color="#8AC3BC"/>
</linearGradient>
<linearGradient id="paint2_linear_2013_1251" x1="1175.12" y1="388" x2="1175.12" y2="661" gradientUnits="userSpaceOnUse">
<stop stop-color="#50716D"/>
<stop offset="1" stop-color="#8AC3BC"/>
</linearGradient>
<linearGradient id="paint3_linear_2013_1251" x1="866.5" y1="150" x2="866.5" y2="632" gradientUnits="userSpaceOnUse">
<stop stop-color="#50716D"/>
<stop offset="1" stop-color="#8AC3BC"/>
</linearGradient>
<linearGradient id="paint4_linear_2013_1251" x1="1816.58" y1="-396.433" x2="1380.77" y2="39.3746" gradientUnits="userSpaceOnUse">
<stop stop-color="white"/>
<stop offset="1" stop-color="#E3E3E3"/>
</linearGradient>
<linearGradient id="paint5_linear_2013_1251" x1="1609.49" y1="-385.955" x2="1173.69" y2="49.8521" gradientUnits="userSpaceOnUse">
<stop stop-color="white"/>
<stop offset="1" stop-color="#E3E3E3"/>
</linearGradient>
<linearGradient id="paint6_linear_2013_1251" x1="1529.99" y1="-492.579" x2="1094.18" y2="-56.7722" gradientUnits="userSpaceOnUse">
<stop stop-color="white"/>
<stop offset="1" stop-color="#E3E3E3"/>
</linearGradient>
<linearGradient id="paint7_linear_2013_1251" x1="-632.58" y1="-396.433" x2="-196.772" y2="39.3746" gradientUnits="userSpaceOnUse">
<stop stop-color="white"/>
<stop offset="1" stop-color="#E3E3E3"/>
</linearGradient>
<linearGradient id="paint8_linear_2013_1251" x1="-425.495" y1="-385.955" x2="10.313" y2="49.8521" gradientUnits="userSpaceOnUse">
<stop stop-color="white"/>
<stop offset="1" stop-color="#E3E3E3"/>
</linearGradient>
<linearGradient id="paint9_linear_2013_1251" x1="-345.989" y1="-492.579" x2="89.8189" y2="-56.7722" gradientUnits="userSpaceOnUse">
<stop stop-color="white"/>
<stop offset="1" stop-color="#E3E3E3"/>
</linearGradient>
<linearGradient id="paint10_linear_2013_1251" x1="1816.58" y1="-396.433" x2="1380.77" y2="39.3746" gradientUnits="userSpaceOnUse">
<stop stop-color="white"/>
<stop offset="1" stop-color="#E3E3E3"/>
</linearGradient>
<linearGradient id="paint11_linear_2013_1251" x1="1609.49" y1="-385.955" x2="1173.69" y2="49.8521" gradientUnits="userSpaceOnUse">
<stop stop-color="white"/>
<stop offset="1" stop-color="#E3E3E3"/>
</linearGradient>
<linearGradient id="paint12_linear_2013_1251" x1="1529.99" y1="-492.579" x2="1094.18" y2="-56.7722" gradientUnits="userSpaceOnUse">
<stop stop-color="white"/>
<stop offset="1" stop-color="#E3E3E3"/>
</linearGradient>
<linearGradient id="paint13_linear_2013_1251" x1="-632.58" y1="-396.433" x2="-196.772" y2="39.3746" gradientUnits="userSpaceOnUse">
<stop stop-color="white"/>
<stop offset="1" stop-color="#E3E3E3"/>
</linearGradient>
<linearGradient id="paint14_linear_2013_1251" x1="-425.495" y1="-385.955" x2="10.313" y2="49.8521" gradientUnits="userSpaceOnUse">
<stop stop-color="white"/>
<stop offset="1" stop-color="#E3E3E3"/>
</linearGradient>
<linearGradient id="paint15_linear_2013_1251" x1="-345.989" y1="-492.579" x2="89.8189" y2="-56.7722" gradientUnits="userSpaceOnUse">
<stop stop-color="white"/>
<stop offset="1" stop-color="#E3E3E3"/>
</linearGradient>
<clipPath id="clip0_2013_1251">
<rect width="1168" height="572" rx="32" fill="white"/>
</clipPath>
<clipPath id="clip1_2013_1251">
<rect x="582" width="586" height="596" rx="32" fill="white"/>
</clipPath>
<clipPath id="clip2_2013_1251">
<rect width="805" height="608" fill="white" transform="matrix(-1 0 0 1 1522 -18)"/>
</clipPath>
<clipPath id="clip3_2013_1251">
<rect width="805" height="608" fill="white" transform="translate(-338 -18)"/>
</clipPath>
<clipPath id="clip4_2013_1251">
<rect width="805" height="608" fill="white" transform="matrix(-1 0 0 1 1522 -18)"/>
</clipPath>
<clipPath id="clip5_2013_1251">
<rect width="805" height="608" fill="white" transform="translate(-338 -18)"/>
</clipPath>
</defs>
</svg>
