<svg width="149" height="28" viewBox="0 0 149 28" fill="none" xmlns="http://www.w3.org/2000/svg">
  <path
    d="M0 1.5979H8.748C11.268 1.5979 13.488 2.1379 15.408 3.2179C17.352 4.2739 18.84 5.7619 19.872 7.6819C20.928 9.5779 21.456 11.7499 21.456 14.1979C21.456 16.6459 20.928 18.8299 19.872 20.7499C18.84 22.6459 17.352 24.1339 15.408 25.2139C13.488 26.2699 11.268 26.7979 8.748 26.7979H0V1.5979ZM8.748 22.2979C11.028 22.2979 12.792 21.5659 14.04 20.1019C15.312 18.6139 15.948 16.6459 15.948 14.1979C15.948 11.7499 15.312 9.7939 14.04 8.3299C12.792 6.8419 11.028 6.0979 8.748 6.0979H5.4V22.2979H8.748Z"
    fill="url(#paint0_linear_2324_1055)" />
  <path
    d="M30.1852 27.0139C28.2412 27.0139 26.5252 26.6299 25.0372 25.8619C23.5732 25.0699 22.4332 23.9539 21.6172 22.5139C20.8252 21.0739 20.4292 19.4179 20.4292 17.5459C20.4292 15.6739 20.8252 14.0179 21.6172 12.5779C22.4332 11.1379 23.5732 10.0339 25.0372 9.2659C26.5252 8.4739 28.2412 8.0779 30.1852 8.0779C32.1292 8.0779 33.8332 8.4739 35.2972 9.2659C36.7852 10.0339 37.9252 11.1379 38.7172 12.5779C39.5332 14.0179 39.9412 15.6739 39.9412 17.5459C39.9412 19.4419 39.5332 21.1099 38.7172 22.5499C37.9252 23.9659 36.7852 25.0699 35.2972 25.8619C33.8332 26.6299 32.1292 27.0139 30.1852 27.0139ZM30.1852 22.8739C31.6012 22.8739 32.7172 22.3819 33.5332 21.3979C34.3732 20.4139 34.7932 19.1299 34.7932 17.5459C34.7932 15.9619 34.3732 14.6779 33.5332 13.6939C32.7172 12.7099 31.6012 12.2179 30.1852 12.2179C28.7932 12.2179 27.6772 12.7099 26.8372 13.6939C26.0212 14.6779 25.6132 15.9619 25.6132 17.5459C25.6132 19.1299 26.0212 20.4139 26.8372 21.3979C27.6772 22.3819 28.7932 22.8739 30.1852 22.8739Z"
    fill="url(#paint1_linear_2324_1055)" />
  <path
    d="M57.2791 19.7779C56.9431 22.0339 55.9831 23.8099 54.3991 25.1059C52.8391 26.3779 50.8111 27.0139 48.3151 27.0139C46.3951 27.0139 44.7151 26.6299 43.2751 25.8619C41.8351 25.0699 40.7191 23.9539 39.9271 22.5139C39.1591 21.0739 38.7751 19.4179 38.7751 17.5459C38.7751 15.6499 39.1591 13.9939 39.9271 12.5779C40.7191 11.1379 41.8351 10.0339 43.2751 9.2659C44.7391 8.4739 46.4311 8.0779 48.3511 8.0779C50.8231 8.0779 52.8391 8.7139 54.3991 9.9859C55.9591 11.2339 56.9191 12.9739 57.2791 15.2059H52.0231C51.8071 14.2939 51.3751 13.5739 50.7271 13.0459C50.0791 12.4939 49.2751 12.2179 48.3151 12.2179C46.9951 12.2179 45.9391 12.7099 45.1471 13.6939C44.3551 14.6779 43.9591 15.9619 43.9591 17.5459C43.9591 19.1299 44.3551 20.4139 45.1471 21.3979C45.9391 22.3819 46.9951 22.8739 48.3151 22.8739C49.2991 22.8739 50.1151 22.5979 50.7631 22.0459C51.4351 21.4939 51.8671 20.7379 52.0591 19.7779H57.2791Z"
    fill="url(#paint2_linear_2324_1055)" />
  <path
    d="M59.4143 12.5779H56.3543V8.2939H59.4143V3.1099H64.4903V8.2939H68.7023V12.5779H64.4903V20.6779C64.4903 21.3259 64.6223 21.7939 64.8863 22.0819C65.1743 22.3699 65.6423 22.5139 66.2903 22.5139H68.9183V26.7979H64.7063C61.1783 26.7979 59.4143 25.0339 59.4143 21.5059V12.5779Z"
    fill="url(#paint3_linear_2324_1055)" />
  <path
    d="M87.3689 22.5139V26.7979H84.7769C82.4489 26.7979 81.3089 25.7899 81.3569 23.7739C80.6849 24.8299 79.8569 25.6339 78.8729 26.1859C77.8889 26.7379 76.7009 27.0139 75.3089 27.0139C73.2449 27.0139 71.5769 26.5459 70.3049 25.6099C69.0569 24.6499 68.4329 23.3059 68.4329 21.5779C68.4329 19.6099 69.1529 18.0979 70.5929 17.0419C72.0569 15.9619 74.1689 15.4219 76.9289 15.4219H80.6009V14.5219C80.6009 13.6819 80.2889 13.0219 79.6649 12.5419C79.0409 12.0379 78.2009 11.7859 77.1449 11.7859C76.2089 11.7859 75.4409 11.9899 74.8409 12.3979C74.2409 12.8059 73.8809 13.3579 73.7609 14.0539H68.8649C69.0329 12.1579 69.8729 10.6939 71.3849 9.6619C72.8969 8.6059 74.9009 8.0779 77.3969 8.0779C80.0129 8.0779 82.0289 8.6539 83.4449 9.8059C84.8849 10.9579 85.6049 12.6259 85.6049 14.8099V21.3259C85.6049 21.7819 85.7009 22.0939 85.8929 22.2619C86.0849 22.4299 86.3849 22.5139 86.7929 22.5139H87.3689ZM80.6009 18.8059H76.8929C75.8369 18.8059 75.0089 19.0219 74.4089 19.4539C73.8329 19.8619 73.5449 20.4499 73.5449 21.2179C73.5449 21.8659 73.7849 22.3819 74.2649 22.7659C74.7689 23.1499 75.4409 23.3419 76.2809 23.3419C77.6009 23.3419 78.6449 22.9699 79.4129 22.2259C80.1809 21.4579 80.5769 20.4379 80.6009 19.1659V18.8059Z"
    fill="url(#paint4_linear_2324_1055)" />
  <path d="M90.144 26.798V1.59796H94.284V23.126H105.12V26.798H90.144Z" fill="#0B0B0B" />
  <path
    d="M108.033 0.985962C108.705 0.985962 109.269 1.21396 109.725 1.66996C110.181 2.10196 110.409 2.65396 110.409 3.32596C110.409 3.99796 110.181 4.56196 109.725 5.01796C109.269 5.44996 108.705 5.66596 108.033 5.66596C107.361 5.66596 106.797 5.44996 106.341 5.01796C105.885 4.56196 105.657 3.99796 105.657 3.32596C105.657 2.65396 105.885 2.10196 106.341 1.66996C106.797 1.21396 107.361 0.985962 108.033 0.985962ZM106.089 8.36596H109.977V26.798H106.089V8.36596Z"
    fill="#0B0B0B" />
  <path
    d="M121.708 8.14996C123.892 8.14996 125.668 8.82196 127.036 10.166C128.428 11.51 129.124 13.67 129.124 16.646V26.798H125.2V16.862C125.2 15.11 124.828 13.778 124.084 12.866C123.34 11.954 122.248 11.498 120.808 11.498C119.272 11.498 118.06 12.038 117.172 13.118C116.308 14.174 115.876 15.638 115.876 17.51V26.798H111.988V8.36596H115.372L115.804 10.778C117.196 9.02596 119.164 8.14996 121.708 8.14996Z"
    fill="#0B0B0B" />
  <path
    d="M130.86 1.59796H134.748V17.366L143.172 8.36596H147.672L140.796 15.782L148.104 26.798H143.496L138.024 18.626L134.748 22.082V26.798H130.86V1.59796Z"
    fill="#0B0B0B" />
  <defs>
    <linearGradient id="paint0_linear_2324_1055" x1="43.6845" y1="27.0139" x2="43.6845" y2="8.69074"
      gradientUnits="userSpaceOnUse">
      <stop offset="0.162889" stop-color="#118758" />
      <stop offset="1" stop-color="#0EA561" />
    </linearGradient>
    <linearGradient id="paint1_linear_2324_1055" x1="43.6845" y1="27.0139" x2="43.6845" y2="8.69074"
      gradientUnits="userSpaceOnUse">
      <stop offset="0.162889" stop-color="#118758" />
      <stop offset="1" stop-color="#0EA561" />
    </linearGradient>
    <linearGradient id="paint2_linear_2324_1055" x1="43.6845" y1="27.0139" x2="43.6845" y2="8.69074"
      gradientUnits="userSpaceOnUse">
      <stop offset="0.162889" stop-color="#118758" />
      <stop offset="1" stop-color="#0EA561" />
    </linearGradient>
    <linearGradient id="paint3_linear_2324_1055" x1="43.6845" y1="27.0139" x2="43.6845" y2="8.69074"
      gradientUnits="userSpaceOnUse">
      <stop offset="0.162889" stop-color="#118758" />
      <stop offset="1" stop-color="#0EA561" />
    </linearGradient>
    <linearGradient id="paint4_linear_2324_1055" x1="43.6845" y1="27.0139" x2="43.6845" y2="8.69074"
      gradientUnits="userSpaceOnUse">
      <stop offset="0.162889" stop-color="#118758" />
      <stop offset="1" stop-color="#0EA561" />
    </linearGradient>
  </defs>
</svg>