<svg
          width="101"
          height="30"
          viewBox="0 0 101 30"
          fill="none"
          xmlns="http://www.w3.org/2000/svg"
        >
          <path
            d="M1.44 7.7H7.272C8.952 7.7 10.432 8.06 11.712 8.78C13.008 9.484 14 10.476 14.688 11.756C15.392 13.02 15.744 14.468 15.744 16.1C15.744 17.732 15.392 19.188 14.688 20.468C14 21.732 13.008 22.724 11.712 23.444C10.432 24.148 8.952 24.5 7.272 24.5H1.44V7.7ZM7.272 21.5C8.792 21.5 9.968 21.012 10.8 20.036C11.648 19.044 12.072 17.732 12.072 16.1C12.072 14.468 11.648 13.164 10.8 12.188C9.968 11.196 8.792 10.7 7.272 10.7H5.04V21.5H7.272ZM21.5634 24.644C20.2674 24.644 19.1234 24.388 18.1314 23.876C17.1554 23.348 16.3954 22.604 15.8514 21.644C15.3234 20.684 15.0594 19.58 15.0594 18.332C15.0594 17.084 15.3234 15.98 15.8514 15.02C16.3954 14.06 17.1554 13.324 18.1314 12.812C19.1234 12.284 20.2674 12.02 21.5634 12.02C22.8594 12.02 23.9954 12.284 24.9714 12.812C25.9634 13.324 26.7234 14.06 27.2514 15.02C27.7954 15.98 28.0674 17.084 28.0674 18.332C28.0674 19.596 27.7954 20.708 27.2514 21.668C26.7234 22.612 25.9634 23.348 24.9714 23.876C23.9954 24.388 22.8594 24.644 21.5634 24.644ZM21.5634 21.884C22.5074 21.884 23.2514 21.556 23.7954 20.9C24.3554 20.244 24.6354 19.388 24.6354 18.332C24.6354 17.276 24.3554 16.42 23.7954 15.764C23.2514 15.108 22.5074 14.78 21.5634 14.78C20.6354 14.78 19.8914 15.108 19.3314 15.764C18.7874 16.42 18.5154 17.276 18.5154 18.332C18.5154 19.388 18.7874 20.244 19.3314 20.9C19.8914 21.556 20.6354 21.884 21.5634 21.884ZM39.6261 19.82C39.4021 21.324 38.7621 22.508 37.7061 23.372C36.6661 24.22 35.3141 24.644 33.6501 24.644C32.3701 24.644 31.2501 24.388 30.2901 23.876C29.3301 23.348 28.5861 22.604 28.0581 21.644C27.5461 20.684 27.2901 19.58 27.2901 18.332C27.2901 17.068 27.5461 15.964 28.0581 15.02C28.5861 14.06 29.3301 13.324 30.2901 12.812C31.2661 12.284 32.3941 12.02 33.6741 12.02C35.3221 12.02 36.6661 12.444 37.7061 13.292C38.7461 14.124 39.3861 15.284 39.6261 16.772H36.1221C35.9781 16.164 35.6901 15.684 35.2581 15.332C34.8261 14.964 34.2901 14.78 33.6501 14.78C32.7701 14.78 32.0661 15.108 31.5381 15.764C31.0101 16.42 30.7461 17.276 30.7461 18.332C30.7461 19.388 31.0101 20.244 31.5381 20.9C32.0661 21.556 32.7701 21.884 33.6501 21.884C34.3061 21.884 34.8501 21.7 35.2821 21.332C35.7301 20.964 36.0181 20.46 36.1461 19.82H39.6261ZM41.0496 15.02H39.0096V12.164H41.0496V8.708H44.4336V12.164H47.2416V15.02H44.4336V20.42C44.4336 20.852 44.5216 21.164 44.6976 21.356C44.8896 21.548 45.2016 21.644 45.6336 21.644H47.3856V24.5H44.5776C42.2256 24.5 41.0496 23.324 41.0496 20.972V15.02ZM59.6859 21.644V24.5H57.9579C56.4059 24.5 55.6459 23.828 55.6779 22.484C55.2299 23.188 54.6779 23.724 54.0219 24.092C53.3659 24.46 52.5739 24.644 51.6459 24.644C50.2699 24.644 49.1579 24.332 48.3099 23.708C47.4779 23.068 47.0619 22.172 47.0619 21.02C47.0619 19.708 47.5419 18.7 48.5019 17.996C49.4779 17.276 50.8859 16.916 52.7259 16.916H55.1739V16.316C55.1739 15.756 54.9659 15.316 54.5499 14.996C54.1339 14.66 53.5739 14.492 52.8699 14.492C52.2459 14.492 51.7339 14.628 51.3339 14.9C50.9339 15.172 50.6939 15.54 50.6139 16.004H47.3499C47.4619 14.74 48.0219 13.764 49.0299 13.076C50.0379 12.372 51.3739 12.02 53.0379 12.02C54.7819 12.02 56.1259 12.404 57.0699 13.172C58.0299 13.94 58.5099 15.052 58.5099 16.508V20.852C58.5099 21.156 58.5739 21.364 58.7019 21.476C58.8299 21.588 59.0299 21.644 59.3019 21.644H59.6859ZM55.1739 19.172H52.7019C51.9979 19.172 51.4459 19.316 51.0459 19.604C50.6619 19.876 50.4699 20.268 50.4699 20.78C50.4699 21.212 50.6299 21.556 50.9499 21.812C51.2859 22.068 51.7339 22.196 52.2939 22.196C53.1739 22.196 53.8699 21.948 54.3819 21.452C54.8939 20.94 55.1579 20.26 55.1739 19.412V19.172Z"
            fill="#025964"
          />
          <path
            d="M61.536 24.5V7.7H64.296V22.052H71.52V24.5H61.536ZM73.4618 7.292C73.9098 7.292 74.2858 7.444 74.5898 7.748C74.8938 8.036 75.0458 8.404 75.0458 8.852C75.0458 9.3 74.8938 9.676 74.5898 9.98C74.2858 10.268 73.9098 10.412 73.4618 10.412C73.0138 10.412 72.6378 10.268 72.3338 9.98C72.0298 9.676 71.8778 9.3 71.8778 8.852C71.8778 8.404 72.0298 8.036 72.3338 7.748C72.6378 7.444 73.0138 7.292 73.4618 7.292ZM72.1658 12.212H74.7578V24.5H72.1658V12.212ZM82.5786 12.068C84.0346 12.068 85.2186 12.516 86.1306 13.412C87.0586 14.308 87.5226 15.748 87.5226 17.732V24.5H84.9066V17.876C84.9066 16.708 84.6586 15.82 84.1626 15.212C83.6666 14.604 82.9386 14.3 81.9786 14.3C80.9546 14.3 80.1466 14.66 79.5546 15.38C78.9786 16.084 78.6906 17.06 78.6906 18.308V24.5H76.0986V12.212H78.3546L78.6426 13.82C79.5706 12.652 80.8826 12.068 82.5786 12.068ZM88.6798 7.7H91.2718V18.212L96.8878 12.212H99.8878L95.3038 17.156L100.176 24.5H97.1038L93.4558 19.052L91.2718 21.356V24.5H88.6798V7.7Z"
            fill="#0B0B0B"
          />
        </svg>